<?xml version="1.0" encoding="UTF-8"?>
<svg width="250" height="250" version="1.0" viewBox="0 0 250 250" xml:space="preserve"
  xmlns="http://www.w3.org/2000/svg">
  <style type="text/css">
    .st0{fill:#ffffff;}
    .st1{fill:#050504;}
    .st2{fill:#E6CDAC;}
    .st3{fill:#C6C6C6;}
    .st4{fill:#DED2B5;}
    .st5{fill:#DDDDDD;}
    .st6{fill:#898989;}
  </style>
  <g>
    <g transform="translate(-69.436 10.104)">
      <path class="st0"
        d="m230.27 145.16-1.01-0.65c0.15-1.97 0.24-3.16 0.24-3.16 0.36-4.92-3.23-9.16-7.99-9.74 2.44-43.66-0.39-78.14-25.68-98.72-0.07-1.17-1.99-25.62-1.99-25.62s-1.92 24.45-1.99 25.62c-25.29 20.57-28.12 55.06-25.68 98.72-4.76 0.58-8.35 4.82-7.99 9.74 0 0 0.09 1.19 0.24 3.16l-1.01 0.65c-8.7 5.63-13.5 14.67-12.51 23.59l4.56 41.46c0.61 5.51 4.37 10.27 10.06 12.72l2.48 1.07c0.64 0.28 1.33 0.42 2.05 0.42 1.42 0 2.85-0.58 3.81-1.55 0.81-0.82 1.25-1.86 1.23-2.94l-0.43-33.51h2.39v-0.04l0.25 0.05c0.8 0.17 1.59 0.33 2.39 0.48l2.04 6.81v10.66l1.09 0.17c4.13 0.63 8.23 1.03 12.27 1.22l0.34 14.39c0.06 2.39 1.97 4.26 4.36 4.26h0.06c2.35 0 4.31-1.91 4.36-4.26l0.34-14.36c4.15-0.18 8.27-0.59 12.28-1.26l1.07-0.18v-10.65l2.05-6.83c0.79-0.15 1.59-0.3 2.38-0.46l0.26-0.05v0.04h2.39l-0.43 33.51c-0.01 1.08 0.42 2.12 1.23 2.94 0.96 0.97 2.39 1.56 3.81 1.56 0.72 0 1.41-0.14 2.05-0.42l2.48-1.07c5.69-2.45 9.46-7.21 10.06-12.72l4.56-41.46c1.03-8.93-3.76-17.96-12.47-23.59z" />
      <path class="st1"
        d="m193.88 225.71h-0.06c-3.09 0-5.57-2.42-5.65-5.51l-0.31-13.21c-3.77-0.21-7.53-0.61-11.21-1.17l-2.18-0.33v-11.58l-1.77-5.89c-0.53-0.1-1.06-0.21-1.58-0.32h-1.14l0.41 32.21c0.02 1.42-0.55 2.79-1.6 3.86-1.81 1.83-4.9 2.44-7.28 1.41l-2.48-1.07c-6.12-2.64-10.17-7.78-10.83-13.76l-4.56-41.47c-1.03-9.41 3.98-18.92 13.09-24.81l0.37-0.24-0.18-2.4c-0.37-5.15 3.04-9.72 7.92-10.89-2.39-44.26 1.19-77.95 25.78-98.3 0.28-3.81 1.88-24.15 1.95-25.08h2.56c0.07 0.93 1.67 21.27 1.95 25.08 24.59 20.35 28.17 54.04 25.78 98.3 4.89 1.18 8.3 5.74 7.92 10.89l-0.18 2.41 0.37 0.24c9.11 5.89 14.13 15.4 13.09 24.81l-4.56 41.47c-0.66 5.98-4.71 11.12-10.83 13.76l-2.48 1.07c-2.38 1.03-5.48 0.42-7.28-1.41-1.05-1.06-1.62-2.43-1.6-3.86l0.41-32.21h-1.15c-0.52 0.11-1.04 0.21-1.57 0.31l-1.77 5.9v11.55l-2.15 0.35c-3.65 0.6-7.42 1.01-11.24 1.22l-0.32 13.17c-0.07 3.02-2.6 5.5-5.64 5.5zm-16.84-22.43c3.98 0.61 8.06 1.01 12.14 1.2l1.19 0.06 0.37 15.59c0.04 1.69 1.39 3.01 3.08 3.01h0.06c1.66 0 3.04-1.35 3.08-3.01l0.37-15.56 1.2-0.05c4.12-0.17 8.2-0.59 12.13-1.24l0.05-9.93 2.28-7.58 0.77-0.14c0.78-0.15 1.57-0.29 2.35-0.46l1.9-0.39-0.02 0.35h2.32l-0.44 34.81c-0.01 0.73 0.3 1.45 0.86 2.02 1.09 1.1 2.99 1.49 4.44 0.86l2.48-1.07c5.26-2.27 8.74-6.64 9.29-11.68l4.56-41.47c0.93-8.44-3.65-17.01-11.94-22.37l-1.65-1.07 0.29-3.92c0.3-4.18-2.71-7.86-6.87-8.37l-1.19-0.15 0.07-1.2c2.48-44.29-0.86-77.85-25.21-97.65l-0.44-0.36-0.03-0.56c-0.03-0.45-0.34-4.49-0.71-9.24-0.37 4.74-0.68 8.79-0.71 9.24l-0.03 0.56-0.44 0.36c-24.35 19.8-27.68 53.36-25.21 97.65l0.07 1.2-1.19 0.15c-4.15 0.51-7.17 4.18-6.87 8.37l0.3 3.92-1.65 1.07c-8.29 5.36-12.86 13.94-11.94 22.37l4.56 41.47c0.56 5.05 4.03 9.42 9.29 11.69l2.48 1.07c1.45 0.63 3.35 0.24 4.44-0.86 0.56-0.57 0.87-1.29 0.86-2.02l-0.44-34.81h2.33l-0.02-0.33 1.9 0.37c0.79 0.17 1.57 0.32 2.36 0.47l0.76 0.15 2.32 7.93v9.55z" />
    </g>
    <g fill="#050504">
      <path class="st1"
        d="m124.74 216c-5.64 0-11.47-0.45-17.34-1.35l-1.09-0.17v-13.66h36.19v13.64l-1.07 0.18c-5.43 0.91-11.04 1.36-16.69 1.36zm-15.86-3.72c10.71 1.54 21.12 1.54 31.06 0.01v-8.9h-31.06z" />
      <path class="st1" d="m140.83 212.48c-7.48 2.52-20.31 2.16-32.97 0 8.56-1.5 12.08-2.78 15.85-7.16h17.12z" />
      <path class="st1"
        d="m106.64 204.89-2.88-9.62c13.57 3.15 27.34 3.12 41.32 0l-2.88 9.62c-11.39 2.07-23.38 2.46-35.56 0z" />
      <path class="st1"
        d="m124.21 198.91c-7.47 0-14.99-0.8-22.33-2.38l-0.93-0.2-0.08-0.95c-0.45-5.75-0.92-11.39-1.38-16.92-5.15-61.82-9.22-110.65 24.14-136.46l0.78-0.61 0.79 0.61c33.36 25.81 29.29 74.64 24.14 136.46-0.46 5.53-0.93 11.17-1.38 16.92l-0.08 0.96-0.94 0.2c-7.62 1.57-15.26 2.37-22.73 2.37zm-20.86-4.7c13.75 2.82 27.87 2.82 42.12-0.01 0.43-5.42 0.88-10.74 1.31-15.96 5.04-60.55 9.04-108.47-22.37-133.6-31.41 25.13-27.41 73.05-22.37 133.6 0.43 5.22 0.88 10.55 1.31 15.97z" />
      <path class="st1"
        d="m102.88 178.21c0.4 4.77 0.8 9.63 1.2 14.57-1.6-55.88-11.01-113.32 19.72-146.26-29.81 24.93-25.88 72.17-20.92 131.69z" />
      <path class="st1"
        d="m124.48 46.644c-0.07-0.06-0.14-0.13-0.21-0.19 11.42 37.55 8.52 112.34-1.22 146.26h11.2c4.32-58.77 9.25-106.2-9.77-146.07z" />
      <path class="st1"
        d="m124.48 46.644c20.27 36.01 16.93 87.53 12.11 146.07h7.4c0.4-4.94 0.8-9.8 1.2-14.57 4.94-59.38 8.86-106.53-20.71-131.5z" />
      <path class="st1"
        d="m91.984 196.51h9.34l-3.67-54.89h-0.1c-5.3 0-9.49 4.51-9.1 9.81-0.01 0.01 3.32 44.36 3.53 45.08z" />
      <path class="st1"
        d="m156.21 196.51h-9.34l3.67-54.89h0.1c5.3 0 9.49 4.51 9.1 9.81 0.01 0.01-3.32 44.36-3.53 45.08z" />
    </g>
    <g transform="translate(-69.436 10.104)">
      <path class="st1"
        d="m185.99 186.41-2.24-45.2c-0.26-5.24 4.07-9.69 9.68-9.69h0.21c5.61 0 9.94 4.45 9.68 9.69l-2.24 45.2z" />
      <path class="st0"
        d="m185.82 183.04-2.07-41.82c-0.26-5.24 4.07-9.69 9.68-9.69h0.21c5.61 0 9.94 4.45 9.68 9.69l-2.07 41.82h1.28l2.07-41.76c0.14-2.83-0.88-5.53-2.86-7.62-2.1-2.2-4.97-3.42-8.1-3.42h-0.21c-3.13 0-6.01 1.21-8.1 3.42-1.98 2.08-3 4.79-2.86 7.62l2.07 41.76z" />
    </g>
    <g fill="#050504">
      <path class="st1"
        d="m94.634 234.52c-0.72 0-1.41-0.14-2.05-0.42l-2.48-1.07c-5.69-2.45-9.45-7.21-10.06-12.72l-4.56-41.46c-0.98-8.92 3.81-17.96 12.51-23.59l8.72-5.64 2.52 45.7 0.44 34.71c0.01 1.08-0.42 2.12-1.23 2.94-0.96 0.97-2.39 1.55-3.81 1.55zm-0.24-80.35-5.01 3.24c-7.88 5.1-12.23 13.2-11.36 21.16l4.56 41.46c0.5 4.58 3.69 8.56 8.53 10.65l2.48 1.07c0.32 0.14 0.67 0.21 1.04 0.21 0.74 0 1.5-0.3 1.98-0.79 0.23-0.23 0.5-0.61 0.49-1.11l-0.44-34.66z" />
      <path class="st1"
        d="m96.644 167.61c-1.51 15.9 0.22 48.11-14.39 53.92 0.95 4.17 4.58 7.77 9.95 9.73l3.25 1.18c0.21 0.08 0.44 0.12 0.69 0.12 0.53 0 1.08-0.18 1.4-0.45 0.11-0.09 0.16-0.17 0.16-0.21l-0.57-38.26z" />
      <path class="st1"
        d="m153.27 151.89 6.87 4.44c8.32 5.38 12.87 13.91 11.94 22.38l-4.56 41.46c-0.56 5.06-4.02 9.41-9.29 11.68l-2.48 1.07c-2.37 1.02-5.33-0.59-5.3-2.88l0.44-34.66z" />
      <path class="st1"
        d="m154.19 234.52c-1.42 0-2.85-0.58-3.81-1.56-0.81-0.82-1.24-1.86-1.23-2.94l0.44-34.66 2.52-45.76 8.72 5.64c8.7 5.63 13.5 14.67 12.52 23.59l-4.56 41.46c-0.61 5.51-4.37 10.27-10.06 12.72l-2.48 1.07c-0.65 0.3-1.34 0.44-2.06 0.44zm0.24-80.35-2.27 41.29-0.44 34.6c-0.01 0.5 0.26 0.88 0.49 1.11 0.72 0.73 2.04 1 3.02 0.58l2.48-1.07c4.83-2.08 8.02-6.06 8.53-10.65l4.56-41.46c0.88-7.95-3.48-16.06-11.36-21.16z" />
    </g>
    <path class="st0"
      d="m154.72 230.57 2.48-1.07c4.41-1.9 7.31-5.49 7.76-9.61l4.48-40.71c-5.11 31.88-6.57 45.95-14.72 51.39z"
      fill="#ffffff" />
    <g transform="translate(-69.436 10.104)">
      <path class="st0"
        d="m193.82 223.14c-1.67 0-3.04-1.34-3.08-3.01l-1.75-73.41c-0.06-2.71 2.11-4.93 4.82-4.93h0.1c2.71 0 4.88 2.23 4.82 4.93l-1.75 73.41c-0.04 1.67-1.41 3.01-3.08 3.01z" />
      <path class="st1"
        d="m193.88 224.42h-0.06c-2.39 0-4.31-1.87-4.36-4.26l-1.75-73.41c-0.04-1.66 0.58-3.22 1.73-4.41 1.16-1.19 2.71-1.84 4.36-1.84 1.76 0 3.31 0.65 4.46 1.84 1.16 1.19 1.77 2.75 1.74 4.41l-1.76 73.41c-0.05 2.35-2.01 4.26-4.36 4.26zm0.02-81.35c-1.06 0-1.96 0.38-2.63 1.07s-1.03 1.59-1 2.56l1.75 73.41c0.02 0.99 0.81 1.76 1.8 1.76h0.06c0.97 0 1.78-0.79 1.8-1.76l1.76-73.41c0.02-0.96-0.33-1.87-1.01-2.56-0.67-0.69-1.57-1.07-2.53-1.07z" />
    </g>
    <path class="st0" d="m122.11 46.454h3.98c-0.05-0.94-1.99-25.64-1.99-25.64s-1.94 24.7-1.99 25.64z" fill="#ffffff" />
    <path class="st1" d="m123.8 46.534 1.14 2.21 0.84-0.97c-0.23-3.15-1.68-22.62-1.68-22.62s-0.27 20.75-0.3 21.38z"
      fill="#050504" />
    <g transform="translate(-69.436 10.104)">
      <circle class="st2" transform="matrix(.8486 -.529 .529 .8486 -19.413 116.32)" cx="193.53" cy="92.08" r="18.35" />
      <path class="st2"
        d="m193.54 111.39c-10.65 0-19.31-8.66-19.31-19.31s8.66-19.31 19.31-19.31 19.31 8.66 19.31 19.31c-0.01 10.65-8.67 19.31-19.31 19.31zm0-36.7c-9.59 0-17.39 7.8-17.39 17.39s7.8 17.39 17.39 17.39 17.39-7.8 17.39-17.39c-0.01-9.59-7.81-17.39-17.39-17.39z" />
      <circle class="st3" transform="matrix(.8486 -.529 .529 .8486 -19.413 116.32)" cx="193.53" cy="92.08" r="18.35" />
      <path class="st4"
        d="m193.54 111.39c-10.65 0-19.31-8.66-19.31-19.31s8.66-19.31 19.31-19.31 19.31 8.66 19.31 19.31c-0.01 10.65-8.67 19.31-19.31 19.31zm0-36.7c-9.59 0-17.39 7.8-17.39 17.39s7.8 17.39 17.39 17.39 17.39-7.8 17.39-17.39c-0.01-9.59-7.81-17.39-17.39-17.39z" />
      <path class="st1"
        d="m206.36 92.08c0 7.08-5.74 12.82-12.82 12.82s-12.82-5.74-12.82-12.82 5.74-12.82 12.82-12.82c7.08-0.01 12.82 5.74 12.82 12.82z" />
      <path class="st5"
        d="m194.82 80.68-11.43 16.73c0.97 1.84 2.43 3.38 4.2 4.46l12.59-19.13c-1.56-1.1-3.38-1.84-5.36-2.06z" />
      <path class="st6"
        d="m200.94 83.36-12.48 18.97c0.53 0.26 1.08 0.47 1.65 0.66l12.14-18.3c-0.4-0.48-0.83-0.93-1.31-1.33z" />
      <path class="st0"
        d="m193.54 110.66c-10.25 0-18.58-8.34-18.58-18.58 0-10.25 8.34-18.58 18.58-18.58 10.25 0 18.58 8.34 18.58 18.58s-8.34 18.58-18.58 18.58zm0-35.24c-9.19 0-16.66 7.47-16.66 16.66s7.47 16.66 16.66 16.66c9.18 0 16.66-7.47 16.66-16.66-0.01-9.19-7.48-16.66-16.66-16.66z" />
      <circle class="st1" cx="193.53" cy="77.34" r="1.43" />
      <path class="st0"
        d="m192.99 77.59c0-0.51 0.41-0.92 0.92-0.92 0.1 0 0.19 0.03 0.28 0.06-0.17-0.19-0.41-0.32-0.68-0.32-0.51 0-0.92 0.41-0.92 0.92 0 0.41 0.27 0.74 0.64 0.86-0.15-0.16-0.24-0.37-0.24-0.6z" />
      <circle class="st1" cx="193.53" cy="106.82" r="1.43" />
      <path class="st0"
        d="m192.99 107.08c0-0.51 0.41-0.92 0.92-0.92 0.1 0 0.19 0.03 0.28 0.06-0.17-0.19-0.41-0.32-0.68-0.32-0.51 0-0.92 0.41-0.92 0.92 0 0.41 0.27 0.74 0.64 0.87-0.15-0.17-0.24-0.38-0.24-0.61z" />
      <circle class="st1" cx="178.79" cy="92.08" r="1.43" />
      <path class="st0"
        d="m178.24 92.33c0-0.51 0.41-0.92 0.92-0.92 0.1 0 0.19 0.03 0.28 0.06-0.17-0.19-0.41-0.32-0.68-0.32-0.51 0-0.92 0.41-0.92 0.92 0 0.41 0.27 0.74 0.64 0.86-0.14-0.15-0.24-0.36-0.24-0.6z" />
      <circle class="st1" cx="208.28" cy="92.08" r="1.43" />
      <path class="st0"
        d="m207.73 92.33c0-0.51 0.41-0.92 0.92-0.92 0.1 0 0.19 0.03 0.28 0.06-0.17-0.19-0.41-0.32-0.68-0.32-0.51 0-0.92 0.41-0.92 0.92 0 0.41 0.27 0.74 0.64 0.86-0.14-0.15-0.24-0.36-0.24-0.6z" />
      <path class="st1"
        d="m205.39 81.65c0 0.79-0.64 1.43-1.43 1.43s-1.43-0.64-1.43-1.43 0.64-1.43 1.43-1.43 1.43 0.64 1.43 1.43z" />
      <path class="st0"
        d="m203.41 81.91c0-0.51 0.41-0.92 0.92-0.92 0.1 0 0.19 0.03 0.28 0.06-0.17-0.19-0.41-0.32-0.68-0.32-0.51 0-0.92 0.41-0.92 0.92 0 0.41 0.27 0.74 0.64 0.87-0.14-0.17-0.24-0.38-0.24-0.61z" />
      <path class="st1"
        d="m184.54 102.5c0 0.79-0.64 1.43-1.43 1.43s-1.43-0.64-1.43-1.43 0.64-1.43 1.43-1.43 1.43 0.64 1.43 1.43z" />
      <path class="st0"
        d="m182.56 102.76c0-0.51 0.41-0.92 0.92-0.92 0.1 0 0.19 0.03 0.28 0.06-0.17-0.19-0.41-0.32-0.68-0.32-0.51 0-0.92 0.41-0.92 0.92 0 0.41 0.27 0.74 0.64 0.87-0.14-0.17-0.24-0.38-0.24-0.61z" />
      <path class="st1"
        d="m184.54 81.65c0 0.79-0.64 1.43-1.43 1.43s-1.43-0.64-1.43-1.43 0.64-1.43 1.43-1.43 1.43 0.64 1.43 1.43z" />
      <path class="st0"
        d="m182.56 81.91c0-0.51 0.41-0.92 0.92-0.92 0.1 0 0.19 0.03 0.28 0.06-0.17-0.19-0.41-0.32-0.68-0.32-0.51 0-0.92 0.41-0.92 0.92 0 0.41 0.27 0.74 0.64 0.87-0.14-0.17-0.24-0.38-0.24-0.61z" />
      <circle class="st1" cx="203.96" cy="102.5" r="1.43" />
      <path class="st0"
        d="m203.41 102.76c0-0.51 0.41-0.92 0.92-0.92 0.1 0 0.19 0.03 0.28 0.06-0.17-0.19-0.41-0.32-0.68-0.32-0.51 0-0.92 0.41-0.92 0.92 0 0.41 0.27 0.74 0.64 0.87-0.14-0.17-0.24-0.38-0.24-0.61z" />
      <path class="st1"
        d="m193.54 110.66c-10.25 0-18.58-8.34-18.58-18.58 0-10.25 8.34-18.58 18.58-18.58 10.25 0 18.58 8.34 18.58 18.58s-8.34 18.58-18.58 18.58zm0-35.24c-9.19 0-16.66 7.47-16.66 16.66s7.47 16.66 16.66 16.66c9.18 0 16.66-7.47 16.66-16.66-0.01-9.19-7.48-16.66-16.66-16.66z" />
      <path class="st1"
        d="m181.9 104.12s0.16 0.11 0.46 0.32c0.31 0.2 0.72 0.55 1.33 0.88 1.16 0.73 2.97 1.6 5.29 2.12 2.32 0.48 5.18 0.57 8.1-0.25 2.9-0.82 5.86-2.52 8.08-5.15 2.23-2.61 3.53-5.76 3.86-8.77 0.34-3.01-0.13-5.82-0.99-8.03-0.86-2.22-2.01-3.85-2.88-4.92-0.43-0.53-0.83-0.9-1.07-1.18-0.25-0.27-0.38-0.41-0.38-0.41s0.16 0.11 0.47 0.31c0.3 0.21 0.78 0.48 1.34 0.92 1.1 0.89 2.64 2.32 3.97 4.58 1.33 2.24 2.32 5.36 2.24 8.92-0.06 3.55-1.41 7.51-4.13 10.67-2.7 3.19-6.43 5.07-9.92 5.7-3.51 0.64-6.74 0.07-9.16-0.86-2.44-0.97-4.11-2.26-5.12-3.25-0.54-0.46-0.87-0.91-1.12-1.17-0.24-0.28-0.37-0.43-0.37-0.43z" />
    </g>
    <g fill="#050504">
      <path class="st1" d="m121.2 226.13c-0.37 7.61 2.26 8.25 6.27 5.69l0.53-74.26c-1.65 25.55-3.79 48.95-6.8 68.57z" />
      <path class="st1"
        d="m133.63 131.99-0.11-2.38c-0.55 0.01-8.03 0.65-15.43 0.66-3.69-0.08-7.36-0.09-10.1-0.32-2.74-0.17-4.56-0.28-4.56-0.28s1.8 0.26 4.52 0.65c2.72 0.45 6.38 0.75 10.09 1.13 7.42 0.57 15.03 0.52 15.59 0.54z" />
      <path class="st1"
        d="m133.64 75.274-0.14-2.38c-0.45 0.02-6.5 0.72-12.46 1.01-2.98 0.03-5.95 0.16-8.15-0.06-2.22-0.13-3.69-0.22-3.69-0.22s1.45 0.23 3.65 0.58c2.19 0.44 5.17 0.6 8.18 0.87 6.02 0.3 12.16 0.19 12.61 0.2z" />
      <path class="st1"
        d="m117.33 165.19c-3.14-0.06-6.19-0.07-8.53-0.29-2.65-0.17-4.41-0.29-4.41-0.29s1.74 0.26 4.37 0.65c2.39 0.42 5.53 0.69 8.77 1.02-0.06-0.36-0.13-0.73-0.2-1.09z" />
      <path class="st1"
        d="m111.79 70.704c-0.06 0-0.12 0.01-0.18 0.02 0.36 0.05 0.65 0.34 0.65 0.72 0 0.41-0.33 0.73-0.73 0.73-0.37 0-0.67-0.28-0.72-0.65-0.01 0.06-0.02 0.12-0.02 0.18 0 0.55 0.45 1 1 1s1-0.45 1-1-0.45-1-1-1z" />
      <path class="st1"
        d="m117.8 70.984c-0.06 0-0.12 0.01-0.18 0.02 0.36 0.05 0.65 0.34 0.65 0.72 0 0.41-0.33 0.73-0.73 0.73-0.37 0-0.67-0.28-0.72-0.65-0.01 0.06-0.02 0.12-0.02 0.18 0 0.55 0.45 1 1 1s1-0.45 1-1-0.45-1-1-1z" />
      <path class="st1"
        d="m124.09 70.984c-0.06 0-0.12 0.01-0.18 0.02 0.36 0.05 0.65 0.34 0.65 0.72 0 0.41-0.33 0.73-0.73 0.73-0.37 0-0.67-0.28-0.72-0.65-0.01 0.06-0.02 0.12-0.02 0.18 0 0.55 0.45 1 1 1s1-0.45 1-1c0.01-0.55-0.44-1-1-1z" />
      <path class="st1"
        d="m111.27 126.95c-0.06 0-0.12 0.01-0.18 0.02 0.36 0.05 0.65 0.34 0.65 0.72 0 0.41-0.33 0.73-0.73 0.73-0.37 0-0.67-0.28-0.72-0.65-0.01 0.06-0.02 0.12-0.02 0.18 0 0.55 0.45 1 1 1s1-0.45 1-1-0.45-1-1-1z" />
      <path class="st1"
        d="m104.44 126.59c-0.06 0-0.12 0.01-0.18 0.02 0.36 0.05 0.65 0.34 0.65 0.72 0 0.41-0.33 0.73-0.73 0.73-0.37 0-0.67-0.28-0.72-0.65-0.01 0.06-0.02 0.12-0.02 0.18 0 0.55 0.45 1 1 1s1-0.45 1-1-0.45-1-1-1z" />
      <path class="st1"
        d="m112.62 161.85c-0.06 0-0.12 0.01-0.18 0.02 0.36 0.05 0.65 0.34 0.65 0.72 0 0.41-0.33 0.73-0.73 0.73-0.37 0-0.67-0.28-0.72-0.65-0.01 0.06-0.02 0.12-0.02 0.18 0 0.55 0.45 1 1 1s1-0.45 1-1c0-0.56-0.44-1-1-1z" />
    </g>
    <path class="st0"
      d="m105.79 161.49c-0.06 0-0.12 0.01-0.18 0.02 0.36 0.05 0.65 0.34 0.65 0.72 0 0.41-0.33 0.73-0.73 0.73-0.37 0-0.67-0.28-0.72-0.65-0.01 0.06-0.02 0.12-0.02 0.18 0 0.55 0.45 1 1 1s1-0.45 1-1c0-0.56-0.45-1-1-1z"
      fill="#ffffff" />
    <g fill="#050504">
      <path class="st1"
        d="m113.62 191.38c-0.06 0-0.12 0.01-0.18 0.02 0.36 0.05 0.65 0.34 0.65 0.72 0 0.41-0.33 0.73-0.73 0.73-0.37 0-0.67-0.28-0.72-0.65-0.01 0.06-0.02 0.12-0.02 0.18 0 0.55 0.45 1 1 1s1-0.45 1-1c0.01-0.55-0.44-1-1-1z" />
      <path class="st1"
        d="m106.79 191.02c-0.06 0-0.12 0.01-0.18 0.02 0.36 0.05 0.65 0.34 0.65 0.72 0 0.41-0.33 0.73-0.73 0.73-0.37 0-0.67-0.28-0.72-0.65-0.01 0.06-0.02 0.12-0.02 0.18 0 0.55 0.45 1 1 1s1-0.45 1-1-0.45-1-1-1z" />
      <path class="st1"
        d="m117.8 127.12c-0.06 0-0.12 0.01-0.18 0.02 0.36 0.05 0.65 0.34 0.65 0.72 0 0.41-0.33 0.73-0.73 0.73-0.37 0-0.67-0.28-0.72-0.65-0.01 0.06-0.02 0.12-0.02 0.18 0 0.55 0.45 1 1 1s1-0.45 1-1c0-0.56-0.45-1-1-1z" />
      <path class="st1"
        d="m124.48 127.12c-0.06 0-0.12 0.01-0.18 0.02 0.36 0.05 0.65 0.34 0.65 0.72 0 0.41-0.33 0.73-0.73 0.73-0.37 0-0.67-0.28-0.72-0.65-0.01 0.06-0.02 0.12-0.02 0.18 0 0.55 0.45 1 1 1s1-0.45 1-1c0-0.56-0.45-1-1-1z" />
      <path class="st1"
        d="m131.16 127.12c-0.06 0-0.12 0.01-0.18 0.02 0.36 0.05 0.65 0.34 0.65 0.72 0 0.41-0.33 0.73-0.73 0.73-0.37 0-0.67-0.28-0.72-0.65-0.01 0.06-0.02 0.12-0.02 0.18 0 0.55 0.45 1 1 1s1-0.45 1-1c0-0.56-0.45-1-1-1z" />
      <path class="st1"
        d="m88.734 158.73s-1.71 2.19-4.45 5.72c-1.3 1.76-2.57 4.09-3.24 6.88-0.69 2.8-0.67 5.92-0.22 9.3 1.59 13.58 2.09 24.69 2.09 24.69s-2.09-10.92-3.68-24.51c-0.46-3.39-0.39-6.9 0.5-9.83 0.87-2.96 2.4-5.32 3.92-7.03 1.51-1.68 2.82-2.93 3.69-3.84 0.9-0.89 1.39-1.38 1.39-1.38z" />
      <path class="st1"
        d="m105.79 161.49c-0.06 0-0.12 0.01-0.18 0.02 0.36 0.05 0.65 0.34 0.65 0.72 0 0.41-0.33 0.73-0.73 0.73-0.37 0-0.67-0.28-0.72-0.65-0.01 0.06-0.02 0.12-0.02 0.18 0 0.55 0.45 1 1 1s1-0.45 1-1c0-0.56-0.45-1-1-1z" />
    </g>
  </g>
</svg>
