<?xml version="1.0" encoding="UTF-8"?>
<svg width="250" height="250" version="1.0" viewBox="0 0 250 250" xml:space="preserve"
  xmlns="http://www.w3.org/2000/svg">
  <g>
    <path
      d="m121.28 234.24-0.32133-5.976v-5.6547l-6.6361-5.1819-7.2405-6.9511-5.6467-6.8819-5.1461-7.865-4.8019-9.8313-0.13414-1.2289-0.13414-1.2289 1.2289 0.12633 1.2289 0.12634 11.588 3.4992 1.6846-0.33368-2.4578-2.1429-15.632-10.615-1.856-2.4965-0.92605-5.1421-0.92606-5.1421-1.0566-11.306 2e-3 -5.8988 2e-3 -5.8988 0.48726-5.653 0.48725-5.653 0.56339-4.7569 0.56338-4.7569 0.38238-0.6187 0.38239-0.61871 1.6339 1.356 9.9068 14.311 2.0092 2.8122 2.0092 2.8122 0.86024 0.0286-0.27343-1.3671-0.27342-1.3671-11.714-26.022-1.0605-2.8491-1.0605-2.8491 2.9715-11.77 4.9776-16.42 0.97076-1.8139 1.4025 1.164 2.4865 4.5988 2.4865 4.5988 0.99488 0.61486 0.2575-0.25749 0.25749-0.2575-4.1962-20.878 0.85869-2.4177 0.85867-2.4177 3.2617-7.7036 3.2619-7.7036 12.515-25.07 0.76379-0.98313 0.7638-0.98312 1.9288 2.4578 9.3102 18.188 6.4498 14.444 4.4438 10.987-5e-3 1.5399-5e-3 1.5399-1.6704 8.1108-1.6704 8.1108-0.16813 1.4318-0.16814 1.4318 0.54962 0.18513 0.54961 0.18514 4.208-8.1495 1.9472-2.7876 1.2804 1.3129 5.3244 17.696 1.3727 5.653 1.3727 5.653-1.4851 3.6867-1.4851 3.6867-10.871 24.169-0.32891 1.3105-0.3289 1.3105h0.97068l6.045-8.6024 8.5869-12.289h1.4597l1.1234 7.3734 0.54595 5.9834 0.54596 5.9834v16.829l-1.0512 9.5467-1.8751 9.7433-1.1176 1.2098-1.1176 1.2098-13.272 8.8775-1.8434 1.4415-1.8434 1.4415v0.90051h1.2677l13.079-3.9342 0.48584 0.30025 0.48582 0.30025-0.31601 1.2591-0.316 1.2591-4.9364 9.9095-6.2299 9.3397-3.3575 3.7131-3.3575 3.7131-5.8988 5.3669-6.1446 4.7149v12.932l-2.0686 2.1078-2.0686 2.1077h-0.62735l-0.32132-5.9759zm3.8067-35.315 0.77694-11.06 0.4822-8.6024 0.48221-8.6024 0.56727-18.925 0.56729-18.925-0.36396-21.137-0.36397-21.137-0.33565-2.9494-0.33566-2.9494-0.3341 3.1952-0.33409 3.1952-0.55325 29.74-0.55326 29.74-0.37035 4.9156-0.37036 4.9156-0.07-32.486-0.07-32.486-0.34122-13.475-0.34122-13.475-0.34709 1.9663-0.34709 1.9663-0.53504 9.3397-0.53503 9.3397-0.5571 18.925-0.55708 18.925 0.62764 41.557 0.48292 10.19 0.48293 10.19 0.49829 7.6192 0.49829 7.6192 0.29206 2.3808 0.29205 2.3808 0.78844-0.82909z"
      fill="#fff" stroke="#000" stroke-width="1" />
  </g>
</svg>
