<?xml version="1.0" encoding="UTF-8" standalone="no"?>
<svg
   width="1440.7"
   height="103.92"
   version="1.1"
   viewBox="0 0 1440.7 103.92"
   xmlnsXlink="http://www.w3.org/1999/xlink"
   id="svg395"
   sodipodi:docname="hills.svg"
   inkscape:version="1.1 (c4e8f9e, 2021-05-24)"
   xmlns:inkscape="http://www.inkscape.org/namespaces/inkscape"
   xmlns:sodipodi="http://sodipodi.sourceforge.net/DTD/sodipodi-0.dtd"
   xmlns="http://www.w3.org/2000/svg"
   xmlns:svg="http://www.w3.org/2000/svg"><defs
   id="defs399" />
<sodipodi:namedview
   id="namedview397"
   pagecolor="#ffffff"
   bordercolor="#666666"
   borderopacity="1.0"
   inkscape:pageshadow="2"
   inkscape:pageopacity="0.0"
   inkscape:pagecheckerboard="0"
   showgrid="false"
   inkscape:zoom="0.74918543"
   inkscape:cx="1132.5634"
   inkscape:cy="-182.19788"
   inkscape:window-width="2852"
   inkscape:window-height="1131"
   inkscape:window-x="0"
   inkscape:window-y="22"
   inkscape:window-maximized="0"
   inkscape:current-layer="svg395" />

{1} fill=&quot;none&quot; fillRule=&quot;evenodd&quot;&gt;
 <g
   transform="matrix(-1.1276 0 0 1 1619.2 -20.432)"
   fill="#fff"
   fillRule="nonzero"
   id="g389"
   style="fill:#1f2937;fill-opacity:1">
  <path
     d="m0 0c90.728 0.92753 147.91 27.188 291.91 59.912 95.998 21.816 270.12 48.308 485.51 41.706-289.66 73.522-561.09 52.05-777.42-26.644"
     opacity=".1"
     id="path383"
     style="fill:#1f2937;fill-opacity:1" />
  <path
     d="m100 104.71c177.41-32.474 326.15-52.184 446.2-59.13 120.06-6.946 264.32-3.7808 432.8 9.4955-47.93 1.0483-150.27 49.987-353.93 71.277-195.44 20.431-374.21 19.112-525.07-21.643z"
     opacity=".1"
     id="path385"
     style="fill:#1f2937;fill-opacity:1" />
  <path
     d="m1046 51.652c84.83-22.323 233.08-34.044 393-11.486v79.834c-167.83-42.056-298.83-64.839-393-68.348z"
     opacity=".2"
     id="path387"
     style="fill:#1f2937;fill-opacity:1" />
</g>
<g
   transform="matrix(-1.0642 0 0 1.0046 1479 14.199)"
   fill="#fff"
   fillRule="nonzero"
   id="g393"
   style="fill:#1f2937;fill-opacity:1">
  <path
     d="m0.457 34.035c56.629 19.163 97.751 31.774 123.36 37.83 57.632 13.63 110.47 18.425 148.21 21.594 39.322 3.3 124.6 2.342 188.99-1.796 25.735-1.653 57.702-5.291 95.901-10.911 57.633-7.4464 113.99-21.839 170.68-34.624 176.67-50.451 335.42-52.824 507.8-23.824 50.455 8.444 118.95 25.128 205.49 50.05l0.305 31.998-1440.1-0.321z"
     id="path391"
     style="fill:#1f2937;fill-opacity:1" />
</g>
<g
   transform="matrix(-1.1276 0 0 1 1619.2 -20.432)"
   fill="#fff"
   fillRule="nonzero"
   id="g506"
   style="fill:#1f2937;fill-opacity:1">
  <path
     d="m0 0c90.728 0.92753 147.91 27.188 291.91 59.912 95.998 21.816 270.12 48.308 485.51 41.706-289.66 73.522-561.09 52.05-777.42-26.644"
     opacity=".1"
     id="path500"
     style="fill:#1f2937;fill-opacity:1" />
  <path
     d="m100 104.71c177.41-32.474 326.15-52.184 446.2-59.13 120.06-6.946 264.32-3.7808 432.8 9.4955-47.93 1.0483-150.27 49.987-353.93 71.277-195.44 20.431-374.21 19.112-525.07-21.643z"
     opacity=".1"
     id="path502"
     style="fill:#1f2937;fill-opacity:1" />
  <path
     d="m1046 51.652c84.83-22.323 233.08-34.044 393-11.486v79.834c-167.83-42.056-298.83-64.839-393-68.348z"
     opacity=".2"
     id="path504"
     style="fill:#1f2937;fill-opacity:1" />
</g>
<g
   transform="matrix(-1.0642 0 0 1.0046 1479 14.199)"
   fill="#fff"
   fillRule="nonzero"
   id="g510"
   style="fill:#1f2937;fill-opacity:1">
  <path
     d="m 0.457,34.035 c 56.629,19.163 97.751,31.774 123.36,37.83 368.92096,60.60239 758.72303,-106.587526 1111.581,-49.561 50.455,8.444 118.95,25.128 205.49,50.05 l 0.305,31.998 -1440.1,-0.321 z"
     id="path508"
     sodipodi:nodetypes="ccccccc"
     style="fill:#1f2937;fill-opacity:1" />
</g>
</svg>
